<svg xmlns="http://www.w3.org/2000/svg" viewBox="0 0 66.35 44.92"><defs><style>.cls-1{fill:#fff;}</style></defs><g id="Layer_2" data-name="Layer 2"><g id="デザイン"><path class="cls-1" d="M64.44,44.92H2A1.91,1.91,0,0,1,.12,43V2a1.9,1.9,0,0,1,3.8,0V41.11H62.54V2a1.91,1.91,0,0,1,3.81,0V43A1.91,1.91,0,0,1,64.44,44.92Z"/><path class="cls-1" d="M33.05,27.87a9,9,0,0,1-5.75-2.08L.72,3.57A2,2,0,0,1,2,0H64.08a2,2,0,0,1,1.3,3.57L38.8,25.79A8.94,8.94,0,0,1,33.05,27.87ZM7.58,4,29.89,22.69a4.92,4.92,0,0,0,6.32,0L58.52,4Z"/></g></g></svg>