<svg xmlns="http://www.w3.org/2000/svg" viewBox="0 0 205.62 34.08"><defs><style>.cls-1{isolation:isolate;}.cls-2{fill:#ea6401;}.cls-3{fill:#407dd0;}.cls-4{fill:#252525;}</style></defs><g id="Layer_2" data-name="Layer 2"><g id="レイヤー_1" data-name="レイヤー 1"><g class="cls-1"><g class="cls-1"><path class="cls-2" d="M8.28,10.23v5.64c1.39-.64,2.71-1.24,4-1.8s1.8.3.71,1.16a39.23,39.23,0,0,1-4.7,2.82V30.58c0,2.26-1.43,3.35-2.93,3.35-1.32,0-.68-1.39-3.84-2.26-.86-.26-.71-1.32.11-1.28,1,.11,2,.23,2.64.26.94,0,1.43-.37,1.5-1.54.11-1.92.11-6.13.08-9.85-1,.45-2,.94-3,1.39-.08.94-.38,1.92-1,1.92-.79,0-1.51-1.24-1.84-3.24,0-.34.11-.45.41-.56,2-.6,3.76-1.24,5.42-1.92V15.08c0-1.09,0-2.86,0-4.85H1.13c-.48,0-.82-.15-.82-.75s.34-.75.82-.75H5.8C5.72,6.06,5.61,3.16,5.38.94c0-.45.19-.56.76-.56,2,0,4.21.3,4.21,1.16,0,.6-.64,1-2,1.32-.07,1.65-.07,3.65-.11,5.87h.53c.71-1.09,1.54-2.19,2-2.19.68,0,2.67,2.15,2.71,2.9,0,.56-.75.79-1.51.79ZM24.49,20.76a18.56,18.56,0,0,0,10.57,7.75c.94.23.83,1,0,1.2a2.45,2.45,0,0,0-1.51,1.09,1.19,1.19,0,0,1-1.73.31,19.52,19.52,0,0,1-8-8.69v1.77c0,1.39.08,7.59.08,8.61,0,.83-.6,1.13-1.69,1.13a.93.93,0,0,1-1-1c0-1,.23-7.18.23-8.69v-.56a25.22,25.22,0,0,1-11.33,8.16c-1.13.49-1.73-.45-.71-1.13a27,27,0,0,0,10.64-9.93H11.48c-.49,0-.83-.15-.83-.75s.34-.75.83-.75h9.93A39.86,39.86,0,0,0,21.14,15a.44.44,0,0,1,.49-.53c1.7,0,4.18.19,4.18,1.09,0,.61-.75,1-1.92,1.17,0,.49,0,1.47,0,2.56H29c.79-1.17,1.8-2.56,2.4-2.56S34.76,19,34.8,19.9c0,.52-.72.86-2,.86Zm-11.62-16C19.08,4.06,25.21,2.93,29.16,1c.86-.46,1-.49,1.73.07a9.48,9.48,0,0,1,2,2c.49.75-.11,1.28-1.58.64A71.36,71.36,0,0,1,13,6.09C11.89,6.09,11.74,4.85,12.87,4.74Zm2.67,3.87c1.81,1,3.54,2.6,3.16,4.29a1.64,1.64,0,0,1-2.07,1.36c-.94-.19-1.13-1.17-1.43-2.34a20.57,20.57,0,0,0-.79-2.37C14.07,8.76,14.6,8.12,15.54,8.61ZM22,7.6c1.73,1.09,3.35,2.78,2.86,4.47a1.64,1.64,0,0,1-2.18,1.17c-.9-.26-1-1.24-1.24-2.41-.15-.75-.42-1.61-.64-2.37S21.07,7,22,7.6ZM31.19,7c1.35.41,3.53,1.84,3.46,2.52s-.68.75-1.81.6a21.87,21.87,0,0,1-4.93,5c-.94.71-1.69.11-1.09-.83a21.48,21.48,0,0,0,3.69-6.84C30.62,7.15,30.77,6.85,31.19,7Z"/></g><g class="cls-1"><path class="cls-3" d="M65.79,4.55c.83-1.24,1.92-2.71,2.52-2.71C69.1,1.84,72,4.21,72,5.15c0,.57-.64.91-2.18.91H53.34c.38.22.64.48.64.79,0,.6-1,.86-1.8.94C51.5,8.84,50.71,10,50,11c5-.07,8.95-.3,12.41-.56a26.26,26.26,0,0,0-2.11-2.11c-.52-.45-.15-1.28.72-1.09,4.06,1,6.36,3.23,6.81,5.11a1.63,1.63,0,0,1-1.24,2.19c-.76.18-1.25-.19-1.81-.91-.34-.45-.71-1.16-1.24-1.84a117.51,117.51,0,0,1-19.33,1.88c-.23.83-.64,1.58-1.28,1.51s-1.24-1.73-1.36-3.77q0-.5.45-.45c2,0,3.84,0,5.57,0a21.94,21.94,0,0,0,1.92-5H39.09c-.49,0-.83-.15-.83-.76s.34-.75.83-.75H53.64a33.56,33.56,0,0,0-.11-4A.47.47,0,0,1,54.06,0c.64,0,4.29.11,4.29,1.13,0,.79-.83,1.09-2,1.35V4.55Zm-5,11.59c.6-.76,1.43-1.62,1.69-1.62.91,0,3.31,2,3.31,2.71,0,.49-.71.86-1.5,1.16-.08,3.09,0,8-.08,12.15a3.08,3.08,0,0,1-3.31,3.2c-1.58,0-.79-1.36-2.89-2.11-.75-.3-.68-1.2,0-1.2.3,0,1.73.15,2.29.15.83,0,1.13-.34,1.2-1.2,0-.57,0-1.32,0-2.11H48.91l0,5.57c0,.82-.6,1.24-1.76,1.24A1,1,0,0,1,46.12,33c0-3.12.3-13.8-.11-17.86a.46.46,0,0,1,.53-.49A9.89,9.89,0,0,1,50,16.14ZM49,17.64c0,.64,0,1.92-.07,3.24H61.62V17.64Zm12.64,8.12V22.38H48.91v3.38Z"/></g><g class="cls-1"><path class="cls-4" d="M83.6,8.22c-.2,1.76-.28,2.38-.45,3.33,2.61,0,7-.23,9.55-.39L93.82,9.5a8.74,8.74,0,0,1,2.49,2.13l0,1.32c-5.66.5-8.46.59-13.55.73a35.56,35.56,0,0,1-2.05,7,12.5,12.5,0,0,1,8-2.66c3.84,0,8.79,1.42,8.79,6.41,0,6.58-8.06,7.45-13.58,7.45-1.28,0-2.32-.06-3.08-.09l-.5-2.29c1.57.11,2.72.16,3.86.16,4.32,0,10.84-.61,10.84-5.26,0-3.36-3.53-4.37-6.3-4.37a10.8,10.8,0,0,0-9,4.54l-2.18-.93a49.18,49.18,0,0,0,3-9.94c-.84,0-4.57,0-5.32,0l-.06-2.29c2.35.11,2.69.11,5.71.14.2-1.6.23-2.33.28-3.39Z"/><path class="cls-4" d="M112.1,31.85c-.7-2.21-2.4-7.51-4.25-12.13A43.65,43.65,0,0,0,103.28,22l-1-3.36,1.46-.64.64,1c1-.48,2.16-.95,2.66-1.15-.81-2-1.71-4-2.1-4.87l2-.84c.64,1.48.78,1.85,2,5a30.08,30.08,0,0,1,7-1.76,21.75,21.75,0,0,0-4.39-3.08l1.09-1.35a19.33,19.33,0,0,1,5.46,2.92L117,15.27c3.52-.11,6.21,1.68,6.21,4.87S120.25,25,116.67,25a7.93,7.93,0,0,1-2.41-.28l-.25-1.9a11.86,11.86,0,0,0,2.6.36c1.91,0,4.4-.78,4.4-3.14,0-1.51-1.15-2.85-4-2.85a23,23,0,0,0-7.28,1.79c1.23,3.08,1.93,4.82,4.51,12Z"/><path class="cls-4" d="M151.39,24.85c-.62,1.51-3,6.77-7.7,6.77-3.87,0-3.89-3.27-3.95-5,0-.5-.08-4.08-.11-4.53-.06-.79-.51-1.54-1.91-1.54-4.17,0-6.69,6.21-8.73,11.7L126.72,31c.9-1.93,2.13-4.48,6.27-14.14.45-1,2.35-5.57,2.77-6.5l-1.4-1.15.84-1.56,3.9,1.09c-1.71,3.44-2.64,5.37-5.21,11.39a6.23,6.23,0,0,1,4.25-1.76c3.81,0,3.81,2.94,3.81,4.9,0,.59,0,2.94,0,3.67.06,1.48.48,2.46,1.88,2.46s3.86-.67,5.77-5.85Z"/><path class="cls-4" d="M179.22,29.41a25.41,25.41,0,0,0-2.32-2.21C176,29.13,174.68,31,171.24,31s-5.35-1.93-5.35-4.28c0-2.19,1.43-4.43,4.76-4.43a10.66,10.66,0,0,1,4.76,1.32c0-.65.06-1.88.06-2.66,0-4.06-.62-7.9-4.34-7.9-3.33,0-7.51,3.84-8.26,4.54,0,4.7,0,9.41.14,14.14h-2.58c0-1.74.14-9.33.14-10.87,0-.16,0-.86,0-1-.72.72-3.83,4.2-4.48,4.9l-1.4-2.36c.45-.44,5.27-5,5.88-5.57V14.74c-1.62.17-3.52.22-5,.25V12.78c.62,0,3.95-.11,5-.17V10.43L159.09,10V8.3L163,8.19c-.06,2.1-.09,4.37-.11,6.55,1.82-1.46,4.92-3.92,8.62-3.92,6.16,0,6.33,6.78,6.33,9.74a34.64,34.64,0,0,1-.25,4.29c1.37,1,1.54,1.15,3,2.35Zm-8.4-5c-2.49,0-2.72,1.65-2.72,2.18,0,1.54,1.46,2.27,3.06,2.27A3.85,3.85,0,0,0,175,26,8.09,8.09,0,0,0,170.82,24.43Z"/><path class="cls-4" d="M183.25,23.17c5.83-4.73,11.43-9.44,14-11.65-2.86.17-6.27.36-11.48.34l0-2.27c1.23,0,2.33.05,4.29.05,3.61,0,6.18-.11,8.4-.28l1.26-1.65a9.14,9.14,0,0,1,2.57,2.13l0,1.29-1,.08c-3.89,3-4.31,3.31-8.17,6.41a13.06,13.06,0,0,1,4-.64c5.46,0,8.54,3,8.54,7.34s-2.91,7.64-9,7.64c-6.89,0-7.59-3.5-7.59-4.76,0-2.24,1.85-4,4.56-4,4.9,0,5.66,4.46,6,6.22a5.11,5.11,0,0,0,3.67-5c0-3.45-2.78-5.46-6.72-5.46-5.41,0-8.65,3.25-11.68,6.21Zm10.31,2.13c-1.29,0-2.38.58-2.38,1.87,0,2.52,4,2.77,5.4,2.77.39,0,.62,0,.76,0C197.25,28.91,196.89,25.3,193.56,25.3Z"/></g></g></g></g></svg>