<svg xmlns="http://www.w3.org/2000/svg" viewBox="0 0 68.92 52.77"><defs><style>.cls-1{fill:#407dd0;}.cls-2{fill:#f3f4e7;}.cls-3{fill:#f0b0af;}.cls-4{fill:#d93a37;}</style></defs><g id="Layer_2" data-name="Layer 2"><g id="Layer_1-2" data-name="Layer 1"><rect class="cls-1" y="3.39" width="34.46" height="49.38"/><rect class="cls-1" x="34.46" y="3.39" width="34.46" height="49.38"/><path class="cls-2" d="M66.46,3.39C62.56,1.32,56.84,0,50.46,0s-12.1,1.32-16,3.39V50.31c3.9-2.07,9.62-3.39,16-3.39s12.1,1.32,16,3.39h0V3.39Z"/><path class="cls-2" d="M34.45,3.39C30.55,1.32,24.84,0,18.46,0s-12.1,1.32-16,3.39V50.31c3.9-2.07,9.61-3.39,16-3.39s12.09,1.32,16,3.39h0V3.39Z"/><path class="cls-3" d="M31.88,5.22A34.46,34.46,0,0,0,18.46,2.77,34.62,34.62,0,0,0,5,5.21l-.25-.56a35.15,35.15,0,0,1,13.67-2.5,35.15,35.15,0,0,1,13.67,2.5Z"/><path class="cls-3" d="M31.88,9A35,35,0,0,0,18.46,6.58,35,35,0,0,0,5,9l-.25-.56A35.53,35.53,0,0,1,18.46,6,35.76,35.76,0,0,1,32.13,8.44Z"/><path class="cls-3" d="M31.89,12.79A35.73,35.73,0,0,0,18.45,10.4,35.53,35.53,0,0,0,5,12.79l-.24-.57A36.21,36.21,0,0,1,18.45,9.79a36.48,36.48,0,0,1,13.67,2.43Z"/><path class="cls-3" d="M31.89,16.58a36.3,36.3,0,0,0-13.44-2.36A36.47,36.47,0,0,0,5,16.57L4.8,16a36.85,36.85,0,0,1,13.65-2.4A36.88,36.88,0,0,1,32.12,16Z"/><path class="cls-3" d="M31.89,20.37A36.94,36.94,0,0,0,18.46,18,36.87,36.87,0,0,0,5,20.36l-.23-.57a37.74,37.74,0,0,1,13.66-2.37A37.52,37.52,0,0,1,32.12,19.8Z"/><path class="cls-3" d="M31.89,24.15a37.55,37.55,0,0,0-13.43-2.29A37.55,37.55,0,0,0,5,24.15l-.23-.57a38.13,38.13,0,0,1,13.66-2.34,38.17,38.17,0,0,1,13.66,2.34Z"/><path class="cls-3" d="M31.89,27.94a38.17,38.17,0,0,0-13.43-2.26A38.17,38.17,0,0,0,5,27.94l-.23-.58a39,39,0,0,1,13.66-2.3,38.82,38.82,0,0,1,13.66,2.31Z"/><path class="cls-3" d="M31.9,31.73A39,39,0,0,0,18.46,29.5,39.15,39.15,0,0,0,5,31.72l-.21-.57a39.6,39.6,0,0,1,13.65-2.27,39.65,39.65,0,0,1,13.65,2.27Z"/><path class="cls-3" d="M31.9,35.51a39.66,39.66,0,0,0-13.44-2.2A39.66,39.66,0,0,0,5,35.51l-.21-.57A40.11,40.11,0,0,1,18.46,32.7a40.11,40.11,0,0,1,13.65,2.24Z"/><path class="cls-3" d="M31.9,39.3a40.4,40.4,0,0,0-13.45-2.17A40.32,40.32,0,0,0,5,39.3l-.21-.58a41.07,41.07,0,0,1,13.64-2.2,41.15,41.15,0,0,1,13.66,2.2Z"/><path class="cls-3" d="M31.9,43.09A41.18,41.18,0,0,0,18.46,41,41.4,41.4,0,0,0,5,43.08l-.21-.57a41.88,41.88,0,0,1,13.65-2.17,41.93,41.93,0,0,1,13.65,2.17Z"/><path class="cls-3" d="M31.9,46.88a41.91,41.91,0,0,0-13.44-2.11A42.14,42.14,0,0,0,5,46.87l-.2-.58a42,42,0,0,1,13.64-2.14,42.07,42.07,0,0,1,13.65,2.14Z"/><path class="cls-3" d="M63.89,5.22A34.51,34.51,0,0,0,50.46,2.77,34.65,34.65,0,0,0,37,5.21l-.24-.56a35.06,35.06,0,0,1,13.66-2.5,35.12,35.12,0,0,1,13.67,2.5Z"/><path class="cls-3" d="M63.89,9A35.09,35.09,0,0,0,50.46,6.58,35,35,0,0,0,37,9l-.24-.56A35.48,35.48,0,0,1,50.46,6,35.72,35.72,0,0,1,64.13,8.44Z"/><path class="cls-3" d="M63.89,12.79A35.64,35.64,0,0,0,50.46,10.4,35.58,35.58,0,0,0,37,12.79l-.24-.57A36.22,36.22,0,0,1,50.46,9.79a36.51,36.51,0,0,1,13.67,2.43Z"/><path class="cls-3" d="M63.89,16.58a36.28,36.28,0,0,0-13.43-2.36A36.43,36.43,0,0,0,37,16.57L36.8,16a36.86,36.86,0,0,1,13.66-2.4A36.92,36.92,0,0,1,64.13,16Z"/><path class="cls-3" d="M63.89,20.37A36.86,36.86,0,0,0,50.46,18,36.85,36.85,0,0,0,37,20.36l-.23-.57a37.64,37.64,0,0,1,13.65-2.37A37.48,37.48,0,0,1,64.12,19.8Z"/><path class="cls-3" d="M63.9,24.15a37.65,37.65,0,0,0-13.44-2.29A37.55,37.55,0,0,0,37,24.15l-.22-.57a38.11,38.11,0,0,1,13.65-2.34,38.13,38.13,0,0,1,13.66,2.34Z"/><path class="cls-3" d="M63.9,27.94a38.27,38.27,0,0,0-13.44-2.26A38.17,38.17,0,0,0,37,27.94l-.22-.58a39,39,0,0,1,13.65-2.3,38.78,38.78,0,0,1,13.66,2.31Z"/><path class="cls-3" d="M63.9,31.73A38.91,38.91,0,0,0,50.46,29.5,39.14,39.14,0,0,0,37,31.72l-.22-.57a39.69,39.69,0,0,1,13.65-2.27,39.7,39.7,0,0,1,13.66,2.27Z"/><path class="cls-3" d="M63.9,35.51a39.66,39.66,0,0,0-13.44-2.2A39.56,39.56,0,0,0,37,35.51l-.22-.57A40.11,40.11,0,0,1,50.46,32.7a40.21,40.21,0,0,1,13.66,2.24Z"/><path class="cls-3" d="M63.9,39.3a40.34,40.34,0,0,0-13.44-2.17A40.32,40.32,0,0,0,37,39.3l-.21-.58a41,41,0,0,1,13.64-2.2,41.09,41.09,0,0,1,13.65,2.2Z"/><path class="cls-3" d="M63.91,43.09A41.2,41.2,0,0,0,50.46,41,41.4,41.4,0,0,0,37,43.08l-.2-.57a41.82,41.82,0,0,1,13.64-2.17,41.84,41.84,0,0,1,13.65,2.17Z"/><path class="cls-3" d="M63.91,46.88a42,42,0,0,0-13.45-2.11A42.19,42.19,0,0,0,37,46.87l-.2-.58a42,42,0,0,1,13.64-2.14,42.07,42.07,0,0,1,13.65,2.14Z"/><path class="cls-4" d="M22.59.2V30.85l5.93-4.29,5.94,4.29V3.39h0A32.11,32.11,0,0,0,22.59.2Z"/></g></g></svg>