<svg xmlns="http://www.w3.org/2000/svg" viewBox="0 0 84.18 64.62"><defs><style>.cls-1{fill:#ebb886;}.cls-2{fill:#e0b080;}.cls-3{fill:#ffcf9f;}.cls-4{fill:#ededed;}.cls-5{fill:#575756;}.cls-6{fill:#005b6b;}.cls-7{fill:#fff;}.cls-8{fill:#407dd0;}</style></defs><g id="Layer_2" data-name="Layer 2"><g id="Layer_2-2" data-name="Layer 2"><path class="cls-1" d="M52.81,35.65,48,32.08,45.17,30l-1.42-1.05-2.1,1.67-.76.6.48-3.64,1-3.49,0-.12-4-1.08a4.88,4.88,0,0,0-2.37,0l-6.22,1.43L19.41,16.86,10.34,30.92l13.11,7.13,2.71,4A9.45,9.45,0,0,0,29,44.76l8.52,6c8.39-2,15.88-8.28,16.15-14.53A7.08,7.08,0,0,0,52.81,35.65Z"/><path class="cls-2" d="M59.38,40.75a3.71,3.71,0,0,0-.29-.27l-1.21-1L54.52,36.9l-.84-.64a4.23,4.23,0,0,1-3.53,3.18c-.21,1.81-1.69,3-4.14,3.72-.41,1.78-1.81,3-4.06,3.65a5.86,5.86,0,0,1-4.42,4l3.94,2.8c3.71,2.61,5.73-1.05,4.6-2.24l.42.31c3.57,2.7,6-1.19,4.12-3.54a2.93,2.93,0,0,0,4.44-3.8l.36.28a1.1,1.1,0,0,0,.14.11A2.77,2.77,0,0,0,59.38,40.75Z"/><path class="cls-3" d="M30.86,41.29a2.54,2.54,0,0,0,1-3.43l-.21-.41a2.58,2.58,0,0,0-1.5-1.23,2.54,2.54,0,0,0-1.93.18l-4.52,2.41a2.36,2.36,0,0,0-1,3.19l.45.85a2.22,2.22,0,0,0,3,.91Z"/><path class="cls-3" d="M35.44,45.08a2.53,2.53,0,0,0,1.08-3.44l-.22-.41a2.52,2.52,0,0,0-3.38-1.07l-5.75,3A2.32,2.32,0,0,0,26,44.5a2.36,2.36,0,0,0,.17,1.82l.45.84a2.2,2.2,0,0,0,2.95.93Z"/><path class="cls-3" d="M39.07,49.37a2.57,2.57,0,0,0,1.07-3.48l-.22-.42a2.57,2.57,0,0,0-3.48-1.06l-4.6,2.44a2.41,2.41,0,0,0-1,3.25l.46.86a2.25,2.25,0,0,0,3,.93Z"/><path class="cls-3" d="M42.83,52.45a2.06,2.06,0,0,0,.74-2.81l-.18-.34a2,2,0,0,0-2.74-.95l-3.53,1.87a1.92,1.92,0,0,0-.7,2.62l.38.71a1.8,1.8,0,0,0,2.39.83Z"/><path class="cls-3" d="M63.08,17.64,54.4,23.59s-6.68-1.15-7.42-.92l-4.62,1.38-3,.9A2.07,2.07,0,0,0,38,26.23L35.23,33.9a1.88,1.88,0,0,0,1.1,2.4l.57.21A3.93,3.93,0,0,0,42,34.18l1-2.85a1.7,1.7,0,0,1,1-1L45,30l.13,0S59.29,40.65,59.38,40.75l3-3.27,8.74-5.39Z"/><polygon class="cls-4" points="19.67 39.44 13.72 35.67 23.55 18.62 29.78 23.22 19.67 39.44"/><path class="cls-5" d="M0,1V29.59c6.42,4.05,12.7,7.89,12.7,7.89L23.55,18.62S10.79,9,0,1Z"/><polygon class="cls-4" points="64.51 38.46 70.46 34.69 60.63 17.64 54.4 22.24 64.51 38.46"/><path class="cls-6" d="M84.18,0V28.61c-6.42,4-12.7,7.89-12.7,7.89L60.63,17.64S73.39,8,84.18,0Z"/><circle class="cls-7" cx="10.4" cy="31.55" r="1.38"/><circle class="cls-7" cx="6.4" cy="28.8" r="1.38"/><circle class="cls-7" cx="72.92" cy="31.55" r="1.37"/><circle class="cls-7" cx="76.92" cy="28.8" r="1.37"/><path class="cls-8" d="M41.62,18.39a.76.76,0,0,1-.75-.75V12.23a.75.75,0,1,1,1.5,0v5.41A.75.75,0,0,1,41.62,18.39Z"/><path class="cls-8" d="M41.62,64.62a.75.75,0,0,1-.75-.75v-5.4a.75.75,0,0,1,1.5,0v5.4A.74.74,0,0,1,41.62,64.62Z"/><path class="cls-8" d="M59.88,57.06a.74.74,0,0,1-.53-.22L55.53,53a.74.74,0,0,1,0-1.06.75.75,0,0,1,1.06,0l3.82,3.82a.75.75,0,0,1,0,1.06A.74.74,0,0,1,59.88,57.06Z"/><path class="cls-8" d="M23.36,57.06a.74.74,0,0,1-.53-.22.75.75,0,0,1,0-1.06L26.66,52A.75.75,0,0,1,27.72,53l-3.83,3.82A.71.71,0,0,1,23.36,57.06Z"/><path class="cls-8" d="M51.28,62.75a.75.75,0,0,1-.69-.47l-2-5a.76.76,0,0,1,.42-1,.74.74,0,0,1,1,.42l2,5a.76.76,0,0,1-.42,1A.87.87,0,0,1,51.28,62.75Z"/><path class="cls-8" d="M34,19.88a.76.76,0,0,1-.7-.47l-2-5a.75.75,0,1,1,1.39-.56l2,5a.75.75,0,0,1-.41,1A.92.92,0,0,1,34,19.88Z"/><path class="cls-8" d="M17.68,48.46A.75.75,0,0,1,17.4,47l5-2A.75.75,0,0,1,23,46.38l-5,2A.69.69,0,0,1,17.68,48.46Z"/><path class="cls-8" d="M65.38,48.91a.79.79,0,0,1-.29-.06l-5-2.12a.75.75,0,0,1-.4-1,.76.76,0,0,1,1-.4l5,2.12a.75.75,0,0,1,.4,1A.78.78,0,0,1,65.38,48.91Z"/><path class="cls-8" d="M31.52,62.57a.72.72,0,0,1-.29-.06.76.76,0,0,1-.4-1l2.11-5a.76.76,0,0,1,1.39.59l-2.12,5A.75.75,0,0,1,31.52,62.57Z"/><path class="cls-8" d="M49.61,20a.71.71,0,0,1-.29-.05.76.76,0,0,1-.4-1L51,14a.76.76,0,0,1,1-.4.74.74,0,0,1,.39,1l-2.11,5A.75.75,0,0,1,49.61,20Z"/></g></g></svg>