<svg xmlns="http://www.w3.org/2000/svg" viewBox="0 0 338.77 291.69"><defs><style>.cls-1{fill:#3d3d3d;}.cls-2{fill:#407dd0;}.cls-3{fill:#1573bb;}.cls-4{fill:#040000;isolation:isolate;opacity:0.06;}.cls-5{fill:#fff;}</style></defs><g id="Layer_2" data-name="Layer 2"><g id="_2" data-name="2"><path class="cls-1" d="M252.3,83.68V224.12a18.84,18.84,0,0,1-16,18.62,12.4,12.4,0,0,1-2.9.28H147.16l-63,48.67L85.45,243H18.84a12.65,12.65,0,0,1-3-.28A18.66,18.66,0,0,1,.29,227.14a13.12,13.12,0,0,1-.29-3V83.68A18.83,18.83,0,0,1,18.84,64.84H233.4A18.88,18.88,0,0,1,252.3,83.68Z"/><path class="cls-2" d="M338.77,18.56V196.68a18.56,18.56,0,0,1-18.56,18.56H52.54A18.52,18.52,0,0,1,34,196.68V18.56A18.52,18.52,0,0,1,52.54,0H320.21a16.29,16.29,0,0,1,4.44.57A18.42,18.42,0,0,1,338.2,14.12,16.29,16.29,0,0,1,338.77,18.56Z"/><path class="cls-3" d="M338.77,22.83V192.47a22.5,22.5,0,0,1-4.95,14.18,21.73,21.73,0,0,1-1.88,2.1,18.68,18.68,0,0,1-1.65,1.42,13.21,13.21,0,0,1-2.05,1.48,12.29,12.29,0,0,1-1.54.92,22.25,22.25,0,0,0,3.25-5.92,22.75,22.75,0,0,0,1.42-7.92V29.09A22.82,22.82,0,0,0,308.54,6.32H49.41A22.26,22.26,0,0,0,38.77,8.94,22.74,22.74,0,0,1,56.81,0H316a22.92,22.92,0,0,1,20,12A23.26,23.26,0,0,1,338.77,22.83Z"/><polygon class="cls-2" points="135.72 195.68 235.06 195.68 237.09 274.05 135.72 195.68"/><path class="cls-4" d="M333.83,206.64A22.77,22.77,0,0,1,316,215.26H235.57l1.51,58.79-76-58.79H56.82A22.74,22.74,0,0,1,39,206.64H157.64L233,264.93l-1.5-58.29Z"/><rect class="cls-5" x="95.17" y="42.26" width="178.4" height="19.26"/><rect class="cls-5" x="95.17" y="95.3" width="196.65" height="19.26"/><rect class="cls-5" x="95.17" y="148.01" width="107.19" height="19.26"/></g></g></svg>