<svg xmlns="http://www.w3.org/2000/svg" viewBox="0 0 17.69 20.05"><defs><style>.cls-1{fill:#313131;fill-rule:evenodd;}</style></defs><g id="Layer_2" data-name="Layer 2"><g id="デザイン"><path class="cls-1" d="M17.1,20.05H11.69V17.25H10.08v2.8H4.67a.59.59,0,0,1-.6-.59V.59A.59.59,0,0,1,4.67,0H17.1a.58.58,0,0,1,.59.59V19.46A.58.58,0,0,1,17.1,20.05ZM8.38,2.85H6.49v2.6H8.38Zm0,4.05H6.49V9.59H8.38Zm0,4H6.49v2.21H8.38Zm0,4.05H6.49v2.21H8.38ZM11.83,2.85H9.94v2.6h1.89Zm0,4.05H9.94V9.59h1.89Zm0,4H9.94v2.21h1.89Zm3.45-8.1H13.39v2.6h1.89Zm0,4.05H13.39V9.59h1.89Zm0,4H13.39v2.21h1.89Zm0,4.05H13.39v2.21h1.89ZM2.57,20.05H.39A.38.38,0,0,1,0,19.67V9.51a.38.38,0,0,1,.15-.3l2.19-1.7a.38.38,0,0,1,.62.3V19.67C3,19.88,3.62,20.05,2.57,20.05Z"/></g></g></svg>