<svg xmlns="http://www.w3.org/2000/svg" viewBox="0 0 14.16 19.98"><defs><style>.cls-1{fill:#313131;fill-rule:evenodd;}</style></defs><g id="Layer_2" data-name="Layer 2"><g id="デザイン"><path class="cls-1" d="M14,16.62a3.08,3.08,0,0,1-.41.72c-.28.39-.65.73-.29,1.06a8.25,8.25,0,0,0-2.08.69A10.94,10.94,0,0,1,7.08,20a10.9,10.9,0,0,1-4.15-.89c.32-.2-.87-.43-1.25-.69A4.82,4.82,0,0,1,.55,17.34a3,3,0,0,1-.4-.72A2.3,2.3,0,0,1,0,15.78,3.17,3.17,0,0,1,.18,15c.1-.22.53-.05.42-.64a3.66,3.66,0,0,1,1.11-.85c.35-.18,1.36-.34,1.19-.47l.2,0h0l-.05,0-.14.06c-.41.22-.75,1-1,.68a3.43,3.43,0,0,0-.84.94,1.55,1.55,0,0,0-.21,1.12,1.68,1.68,0,0,0,.56.89c.64.57,1.58,1.56,2.7,1,0,.17.69.28,1.47.33.53,0,1,0,1.39,0h.29c.39,0,.87,0,1.4,0a9.15,9.15,0,0,0,2.08-.33c.51.55,1.45-.44,2.08-1a1.74,1.74,0,0,0,.57-.89c.48-.35,0-.74-.21-1.12a3.48,3.48,0,0,0-.85-.94c-.29.36-.64-.46-1-.68L11.06,13h0l.1,0,.1,0a14.82,14.82,0,0,0,1.71.47c-.05.25.3.52.59.85.18.59.32.42.42.64a3.68,3.68,0,0,1,.18.81A2.53,2.53,0,0,1,14,16.62ZM1.6,5.47a5.48,5.48,0,0,1,11,0c0,3.48-5.48,11-5.48,11S1.6,9,1.6,5.47Zm7.55,0A2.08,2.08,0,0,0,5,5.47c0,1.15.93,2.65,2.08,2.65S9.15,6.62,9.15,5.47Z"/></g></g></svg>