<svg xmlns="http://www.w3.org/2000/svg" viewBox="0 0 12.1 13.69"><defs><style>.cls-1{fill:#313131;fill-rule:evenodd;}</style></defs><g id="Layer_2" data-name="Layer 2"><g id="Layer_1-2" data-name="Layer 1"><path class="cls-1" d="M4.79,11.34c0,.72-.29,1.37-.32,2.35-1.12-.78-1.23-.69-1.23-.49s.16.3.43.3c.43,0,1.8-.18,2.38-.18s1.93.18,2.36.18c.27,0,.43-.12.43-.3s.32-.29-.52.49a3.84,3.84,0,0,1-1-2.35V1.64c0-.69.29-.76.85-.76A3.92,3.92,0,0,1,11.29,3.2c.14.29.23.51.5.51a.33.33,0,0,0,.31-.36A27,27,0,0,1,11.65.52c0-.48-.2-.37-.65-.37S7.53,0,6.05,0,1.53.15,1.1.15.45,0,.45.52A27,27,0,0,1,0,3.35a.32.32,0,0,0,.31.36c.27,0,.36-.22.5-.51A3.91,3.91,0,0,1,3.94.88c.56,0,.85.07.85.76Z"/></g></g></svg>