<svg xmlns="http://www.w3.org/2000/svg" viewBox="0 0 13.41 21.24"><defs><style>.cls-1{fill:#313131;fill-rule:evenodd;}</style></defs><g id="Layer_2" data-name="Layer 2"><g id="デザイン"><path class="cls-1" d="M9.31,9.44h0l-.37-.65L8.14,7.41,8,8.46l-.16.77H7.6c0,.49.07,0,.33.2.39,1.57,2.26,8.24,2.26,8.24L6.71,21.24,3.22,17.67s2.25-8,2.59-8.4l.11,0H5.56L5.27,7.42l0,.87L4.11,9.44h0L3.6,7.3,0,2.73,1.09,0h.06L1.64.9,3.35,2.59,6.18,5.4l.15.15,0,.09-.69,1.2H7.81l-.22-.39-.46-.81,0-.09.15-.15,2.84-2.81L12.67,0h0V.05l.73,2.68Zm1.22-8.35L9,2.59H4.39L2.56,0h9.06Z"/></g></g></svg>